<svg width="135" height="27" viewBox="0 0 135 27" fill="none" xmlns="http://www.w3.org/2000/svg">
<path d="M18.6785 3.76489C17.9253 3.76489 17.3123 4.37786 17.3123 5.13105C17.3123 5.88424 17.9253 6.49721 18.6785 6.49721C19.4317 6.49721 20.0444 5.88424 20.0444 5.13105C20.0444 4.37786 19.4317 3.76489 18.6785 3.76489Z" fill="#FCC201"/>
<path d="M20.4374 23.6769H3.23953C1.45324 23.6769 0 22.2237 0 20.4374V3.23953C0 1.45324 1.45324 0 3.23953 0H20.4371C22.2237 0 23.6769 1.45324 23.6769 3.23953V20.4371C23.6769 22.2237 22.2237 23.6769 20.4374 23.6769ZM3.23953 2.10462C2.61393 2.10462 2.10462 2.61393 2.10462 3.23953V20.4371C2.10462 21.063 2.61393 21.5723 3.23953 21.5723H20.4371C21.063 21.5723 21.5723 21.063 21.5723 20.4374V3.23953C21.5723 2.61393 21.063 2.10462 20.4374 2.10462H3.23953Z" fill="#FCC201"/>
<path d="M11.9048 18.4727C8.28299 18.4727 5.33679 15.5265 5.33679 11.9048C5.33679 8.28324 8.28325 5.33678 11.9048 5.33678C15.5263 5.33678 18.4725 8.28324 18.4725 11.9048C18.4728 15.5265 15.5266 18.4727 11.9048 18.4727ZM11.9048 7.44139C9.44369 7.44139 7.44141 9.44367 7.44141 11.9048C7.44141 14.3658 9.44369 16.3681 11.9048 16.3681C14.3659 16.3681 16.3679 14.3661 16.3679 11.9048C16.3681 9.44367 14.3659 7.44139 11.9048 7.44139Z" fill="#FCC201"/>
<path d="M33.4391 19.368H34.9991V21H29.9591V19.368H31.4711V4.632H29.9591V3H34.9991V4.632H33.4391V19.368ZM46.1859 8.76C47.4339 8.76 48.0579 9.376 48.0579 10.608V19.368H49.5939V21H44.9619V19.368H46.1139V10.44L41.3379 13.44V19.368H42.5139V21H37.8819V19.368H39.3939V10.608H37.8819V9H41.3379V11.496L45.3219 9C45.5779 8.84 45.8659 8.76 46.1859 8.76ZM59.8985 18.888C59.8985 20.296 59.2105 21 57.8345 21H52.0265V17.376H53.6585V19.368H57.9785V17.376L54.0425 14.904C53.6425 14.648 53.2985 14.44 53.0105 14.28C52.7225 14.12 52.4825 13.96 52.2905 13.8C51.9385 13.48 51.7625 13.048 51.7625 12.504V11.136C51.7625 10.464 51.8745 10 52.0985 9.744C52.5305 9.248 53.1705 9 54.0185 9H59.6105V12.6H57.9785V10.632H53.6585V12.648L57.7385 15.192C58.0745 15.4 58.3705 15.584 58.6265 15.744C58.8985 15.888 59.1225 16.04 59.2985 16.2C59.6985 16.536 59.8985 16.936 59.8985 17.4V18.888ZM65.7174 4.632V9H67.6614V10.728H65.7174V19.368H67.9974V21H65.9814C65.2614 21 64.7254 20.816 64.3734 20.448C64.0214 20.064 63.8454 19.416 63.8454 18.504V10.728H62.0694V9H63.8454V4.632H65.7174ZM79.5986 19.368V21H71.2466C70.4306 21 69.8786 20.84 69.5906 20.52C69.3346 20.232 69.2066 19.688 69.2066 18.888V18C69.2066 17.424 69.2786 17.032 69.4226 16.824C69.6306 16.52 70.1026 16.144 70.8386 15.696L76.1186 12.408V10.632H71.4146V12.024H69.8786V9H75.8786C76.6946 9 77.2626 9.176 77.5826 9.528C77.9186 9.88 78.0866 10.392 78.0866 11.064V19.368H79.5986ZM76.1186 14.328L71.1266 17.448V19.368H76.1186V14.328ZM90.6425 10.632V24.192C90.6425 24.864 90.4745 25.376 90.1385 25.728C89.8185 26.08 89.2505 26.256 88.4345 26.256H82.6265V22.992H84.2585V24.6H88.6745V18.336L84.5705 20.928C84.2185 21.136 83.8265 21.24 83.3945 21.24C82.9785 21.24 82.6025 21.08 82.2665 20.76C81.9305 20.424 81.7625 20.016 81.7625 19.536V11.112C81.7625 10.328 81.8665 9.816 82.0745 9.576C82.4265 9.192 83.0025 9 83.8025 9H92.1545V10.632H90.6425ZM88.6745 10.632H83.6345V19.56L88.6745 16.392V10.632ZM101.357 9C102.605 9 103.229 9.616 103.229 10.848V12.984H101.285V10.656L97.541 13.032V19.368H98.717V21H94.085V19.368H95.597V10.608H94.085V8.976H97.541V11.088L100.493 9.24C100.749 9.08 101.037 9 101.357 9ZM105.388 11.352C105.388 9.768 106.212 8.976 107.86 8.976H111.916C112.7 8.976 113.268 9.128 113.62 9.432C113.972 9.736 114.148 10.296 114.148 11.112V13.344L107.308 17.664V19.368H112.252V17.976H114.148V19.248C114.148 19.728 113.996 20.144 113.692 20.496C113.404 20.832 112.916 21 112.228 21H107.308C106.62 21 106.124 20.832 105.82 20.496C105.532 20.144 105.388 19.728 105.388 19.248V11.352ZM107.308 15.72L112.228 12.624V10.632H107.308V15.72ZM130.584 8.76C131.832 8.76 132.456 9.376 132.456 10.608V19.368H133.992V21H129.36V19.368H130.512V10.44L126.12 13.176V19.368H127.296V21H123V19.368H124.152L124.176 19.272V10.416L119.76 13.176V19.368H120.936V21H116.304V19.368H117.816V10.608H116.304V9H119.76V11.28L123.384 9C123.64 8.84 123.928 8.76 124.248 8.76C125.496 8.76 126.12 9.376 126.12 10.608V11.256L129.72 9C129.976 8.84 130.264 8.76 130.584 8.76Z" fill="#FCC201"/>
</svg>
