<svg width="157" height="35" viewBox="0 0 157 35" fill="none" xmlns="http://www.w3.org/2000/svg">
<path d="M5.40859 24.552H7.74859V27H0.188594V24.552H2.45659V2.448H0.188594V-2.14577e-06H7.74859V2.448H5.40859V24.552ZM24.5288 8.64C26.4008 8.64 27.3368 9.564 27.3368 11.412V24.552H29.6408V27H22.6928V24.552H24.4208V11.16L17.2568 15.66V24.552H19.0208V27H12.0728V24.552H14.3408V11.412H12.0728V9H17.2568V12.744L23.2328 9C23.6168 8.76 24.0488 8.64 24.5288 8.64ZM45.0978 23.832C45.0978 25.944 44.0658 27 42.0018 27H33.2898V21.564H35.7378V24.552H42.2178V21.564L36.3138 17.856C35.7138 17.472 35.1978 17.16 34.7658 16.92C34.3338 16.68 33.9738 16.44 33.6858 16.2C33.1578 15.72 32.8938 15.072 32.8938 14.256V12.204C32.8938 11.196 33.0618 10.5 33.3978 10.116C34.0458 9.372 35.0058 9 36.2778 9H44.6658V14.4H42.2178V11.448H35.7378V14.472L41.8578 18.288C42.3618 18.6 42.8058 18.876 43.1898 19.116C43.5978 19.332 43.9338 19.56 44.1978 19.8C44.7978 20.304 45.0978 20.904 45.0978 21.6V23.832ZM53.8261 2.448V9H56.7421V11.592H53.8261V24.552H57.2461V27H54.2221C53.1421 27 52.3381 26.724 51.8101 26.172C51.2821 25.596 51.0181 24.624 51.0181 23.256V11.592H48.3541V9H51.0181V2.448H53.8261ZM74.6478 24.552V27H62.1198C60.8958 27 60.0678 26.76 59.6358 26.28C59.2518 25.848 59.0598 25.032 59.0598 23.832V22.5C59.0598 21.636 59.1678 21.048 59.3838 20.736C59.6958 20.28 60.4038 19.716 61.5078 19.044L69.4278 14.112V11.448H62.3718V13.536H60.0678V9H69.0678C70.2918 9 71.1438 9.264 71.6238 9.792C72.1278 10.32 72.3798 11.088 72.3798 12.096V24.552H74.6478ZM69.4278 16.992L61.9398 21.672V24.552H69.4278V16.992ZM91.2138 11.448V31.788C91.2138 32.796 90.9618 33.564 90.4578 34.092C89.9778 34.62 89.1258 34.884 87.9018 34.884H79.1898V29.988H81.6378V32.4H88.2618V23.004L82.1058 26.892C81.5778 27.204 80.9898 27.36 80.3418 27.36C79.7178 27.36 79.1538 27.12 78.6498 26.64C78.1458 26.136 77.8938 25.524 77.8938 24.804V12.168C77.8938 10.992 78.0498 10.224 78.3618 9.864C78.8898 9.288 79.7538 9 80.9538 9H93.4818V11.448H91.2138ZM88.2618 11.448H80.7018V24.84L88.2618 20.088V11.448ZM107.286 9C109.158 9 110.094 9.924 110.094 11.772V14.976H107.178V11.484L101.562 15.048V24.552H103.326V27H96.3775V24.552H98.6455V11.412H96.3775V8.964H101.562V12.132L105.99 9.36C106.374 9.12 106.806 9 107.286 9ZM113.331 12.528C113.331 10.152 114.567 8.964 117.039 8.964H123.123C124.299 8.964 125.151 9.192 125.679 9.648C126.207 10.104 126.471 10.944 126.471 12.168V15.516L116.211 21.996V24.552H123.627V22.464H126.471V24.372C126.471 25.092 126.243 25.716 125.787 26.244C125.355 26.748 124.623 27 123.591 27H116.211C115.179 27 114.435 26.748 113.979 26.244C113.547 25.716 113.331 25.092 113.331 24.372V12.528ZM116.211 19.08L123.591 14.436V11.448H116.211V19.08ZM151.126 8.64C152.998 8.64 153.934 9.564 153.934 11.412V24.552H156.238V27H149.29V24.552H151.018V11.16L144.43 15.264V24.552H146.194V27H139.75V24.552H141.478L141.514 24.408V11.124L134.89 15.264V24.552H136.654V27H129.706V24.552H131.974V11.412H129.706V9H134.89V12.42L140.326 9C140.71 8.76 141.142 8.64 141.622 8.64C143.494 8.64 144.43 9.564 144.43 11.412V12.384L149.83 9C150.214 8.76 150.646 8.64 151.126 8.64Z" fill="black"/>
</svg>
